<?xml version="1.0" encoding="UTF-8" standalone="no"?>
<!-- Created with Inkscape (http://www.inkscape.org/) -->

<svg
   xmlns:dc="http://purl.org/dc/elements/1.1/"
   xmlns:cc="http://creativecommons.org/ns#"
   xmlns:rdf="http://www.w3.org/1999/02/22-rdf-syntax-ns#"
   xmlns:svg="http://www.w3.org/2000/svg"
   xmlns="http://www.w3.org/2000/svg"
   xmlns:sodipodi="http://sodipodi.sourceforge.net/DTD/sodipodi-0.dtd"
   xmlns:inkscape="http://www.inkscape.org/namespaces/inkscape"
   width="210mm"
   height="297mm"
   viewBox="0 0 210 297"
   version="1.1"
   id="svg944"
   inkscape:version="0.92.4 (5da689c313, 2019-01-14)"
   sodipodi:docname="switch-all.svg">
  <defs
     id="defs938" />
  <sodipodi:namedview
     id="base"
     pagecolor="#ffffff"
     bordercolor="#666666"
     borderopacity="1.0"
     inkscape:pageopacity="0.0"
     inkscape:pageshadow="2"
     inkscape:zoom="0.49497475"
     inkscape:cx="487.63047"
     inkscape:cy="633.96593"
     inkscape:document-units="mm"
     inkscape:current-layer="layer1"
     showgrid="false"
     inkscape:window-width="1920"
     inkscape:window-height="1027"
     inkscape:window-x="-8"
     inkscape:window-y="-8"
     inkscape:window-maximized="1" />
  <metadata
     id="metadata941">
    <rdf:RDF>
      <cc:Work
         rdf:about="">
        <dc:format>image/svg+xml</dc:format>
        <dc:type
           rdf:resource="http://purl.org/dc/dcmitype/StillImage" />
        <dc:title></dc:title>
      </cc:Work>
    </rdf:RDF>
  </metadata>
  <g
     inkscape:label="Layer 1"
     inkscape:groupmode="layer"
     id="layer1">
    <g
       id="g3518"
       transform="rotate(-90,161.16354,140.18672)">
      <g
         transform="translate(-50.809394,-17.185669)"
         id="g3361">
        <polygon
           points="345.272,110.919 345.141,111.115 344.995,111.3 344.835,111.473 344.662,111.633 344.477,111.779 344.281,111.909 344.076,112.025 343.862,112.123 343.641,112.205 343.414,112.269 343.183,112.315 342.949,112.342 342.714,112.352 8.001,112.351 7.765,112.342 7.531,112.315 7.3,112.269 7.073,112.205 6.852,112.123 6.639,112.025 6.433,111.909 6.237,111.779 6.052,111.633 5.879,111.473 5.719,111.3 5.573,111.115 5.443,110.919 5.327,110.713 5.229,110.5 5.147,110.279 5.083,110.052 5.037,109.821 5.01,109.587 5,109.351 5.001,8.001 5.01,7.765 5.037,7.531 5.083,7.3 5.147,7.073 5.229,6.852 5.327,6.639 5.443,6.433 5.573,6.237 5.719,6.052 5.879,5.879 6.052,5.719 6.237,5.573 6.433,5.443 6.639,5.327 6.852,5.229 7.073,5.147 7.3,5.083 7.531,5.037 7.765,5.01 8.001,5 342.714,5.001 342.949,5.01 343.183,5.037 343.414,5.083 343.641,5.147 343.862,5.229 344.076,5.327 344.281,5.443 344.477,5.573 344.662,5.719 344.835,5.879 344.995,6.052 345.141,6.237 345.272,6.433 345.387,6.639 345.486,6.852 345.567,7.073 345.631,7.3 345.677,7.531 345.705,7.765 345.714,8.001 345.714,109.351 345.705,109.587 345.677,109.821 345.631,110.052 345.567,110.279 345.486,110.5 345.387,110.713 "
           style="fill:none;stroke:#000000;stroke-width:0.05mm"
           id="polygon3110" />
        <polygon
           points="7.572,110.776 8.051,110.852 8.529,110.776 8.962,110.555 9.304,110.213 9.525,109.78 9.601,109.302 9.525,108.823 9.304,108.39 8.962,108.048 8.529,107.827 8.051,107.751 7.572,107.827 7.139,108.048 6.797,108.39 6.576,108.823 6.501,109.302 6.576,109.78 6.797,110.213 7.139,110.555 "
           style="fill:none;stroke:#000000;stroke-width:0.05mm"
           id="polygon3112" />
        <polygon
           points="119.109,110.776 119.588,110.852 120.067,110.776 120.499,110.555 120.842,110.213 121.062,109.78 121.138,109.302 121.062,108.823 120.842,108.39 120.499,108.048 120.067,107.827 119.588,107.751 119.109,107.827 118.677,108.048 118.334,108.39 118.114,108.823 118.038,109.302 118.114,109.78 118.334,110.213 118.677,110.555 "
           style="fill:none;stroke:#000000;stroke-width:0.05mm"
           id="polygon3114" />
        <polygon
           points="230.647,110.776 231.126,110.852 231.605,110.776 232.037,110.555 232.38,110.213 232.6,109.78 232.676,109.302 232.6,108.823 232.38,108.39 232.037,108.048 231.605,107.827 231.126,107.751 230.647,107.827 230.215,108.048 229.872,108.39 229.652,108.823 229.576,109.302 229.652,109.78 229.872,110.213 230.215,110.555 "
           style="fill:none;stroke:#000000;stroke-width:0.05mm"
           id="polygon3116" />
        <polygon
           points="342.185,110.776 342.664,110.852 343.143,110.776 343.575,110.555 343.918,110.213 344.138,109.78 344.214,109.302 344.138,108.823 343.918,108.39 343.575,108.048 343.143,107.827 342.664,107.751 342.185,107.827 341.753,108.048 341.41,108.39 341.19,108.823 341.114,109.302 341.19,109.78 341.41,110.213 341.753,110.555 "
           style="fill:none;stroke:#000000;stroke-width:0.05mm"
           id="polygon3118" />
        <polygon
           points="196.169,97.226 196.169,94.525 195.344,94.525 195.344,91.295 188.694,91.295 188.694,94.525 148.969,94.525 148.969,89.825 135.069,89.825 135.069,94.525 95.344,94.525 95.344,91.295 88.694,91.295 88.694,94.525 87.869,94.525 87.869,97.226 88.694,97.226 88.694,103.495 90.419,103.495 90.419,104.696 93.619,104.696 93.619,103.495 95.344,103.495 95.344,99.025 135.069,99.025 135.069,103.726 148.969,103.726 148.969,99.025 188.694,99.025 188.694,103.495 190.419,103.495 190.419,104.696 193.619,104.696 193.619,103.495 195.344,103.495 195.344,97.226 "
           style="fill:none;stroke:#000000;stroke-width:0.05mm"
           id="polygon3120" />
        <polygon
           points="323.188,89.825 323.188,103.726 337.088,103.726 337.088,89.825 "
           style="fill:none;stroke:#000000;stroke-width:0.05mm"
           id="polygon3122" />
        <polygon
           points="304.138,89.825 304.138,103.726 318.038,103.726 318.038,89.825 "
           style="fill:none;stroke:#000000;stroke-width:0.05mm"
           id="polygon3124" />
        <polygon
           points="285.088,89.825 285.088,103.726 298.988,103.726 298.988,89.825 "
           style="fill:none;stroke:#000000;stroke-width:0.05mm"
           id="polygon3126" />
        <polygon
           points="254.132,89.825 254.132,103.726 268.032,103.726 268.032,89.825 "
           style="fill:none;stroke:#000000;stroke-width:0.05mm"
           id="polygon3128" />
        <polygon
           points="230.319,89.825 230.319,103.726 244.219,103.726 244.219,89.825 "
           style="fill:none;stroke:#000000;stroke-width:0.05mm"
           id="polygon3130" />
        <polygon
           points="206.507,89.825 206.507,103.726 220.407,103.726 220.407,89.825 "
           style="fill:none;stroke:#000000;stroke-width:0.05mm"
           id="polygon3132" />
        <polygon
           points="63.632,89.825 63.632,103.726 77.532,103.726 77.532,89.825 "
           style="fill:none;stroke:#000000;stroke-width:0.05mm"
           id="polygon3134" />
        <polygon
           points="39.819,89.825 39.819,103.726 53.719,103.726 53.719,89.825 "
           style="fill:none;stroke:#000000;stroke-width:0.05mm"
           id="polygon3136" />
        <polygon
           points="16.007,89.825 16.007,103.726 29.907,103.726 29.907,89.825 "
           style="fill:none;stroke:#000000;stroke-width:0.05mm"
           id="polygon3138" />
        <polygon
           points="286.657,78.176 286.657,75.476 285.832,75.476 285.832,72.245 279.182,72.245 279.182,75.476 277.557,75.476 277.557,70.775 263.657,70.775 263.657,75.476 262.032,75.476 262.032,72.245 255.382,72.245 255.382,75.476 254.557,75.476 254.557,78.176 255.382,78.176 255.382,84.446 257.107,84.446 257.107,85.646 260.306,85.646 260.306,84.446 262.032,84.446 262.032,79.976 263.657,79.976 263.657,84.676 277.557,84.676 277.557,79.976 279.182,79.976 279.182,84.446 280.907,84.446 280.907,85.646 284.107,85.646 284.107,84.446 285.832,84.446 285.832,78.176 "
           style="fill:none;stroke:#000000;stroke-width:0.05mm"
           id="polygon3140" />
        <polygon
           points="323.188,70.775 323.188,84.676 337.088,84.676 337.088,70.775 "
           style="fill:none;stroke:#000000;stroke-width:0.05mm"
           id="polygon3142" />
        <polygon
           points="304.138,70.775 304.138,84.676 318.038,84.676 318.038,70.775 "
           style="fill:none;stroke:#000000;stroke-width:0.05mm"
           id="polygon3144" />
        <polygon
           points="227.938,70.775 227.938,84.676 241.838,84.676 241.838,70.775 "
           style="fill:none;stroke:#000000;stroke-width:0.05mm"
           id="polygon3146" />
        <polygon
           points="208.888,70.775 208.888,84.676 222.788,84.676 222.788,70.775 "
           style="fill:none;stroke:#000000;stroke-width:0.05mm"
           id="polygon3148" />
        <polygon
           points="189.838,70.775 189.838,84.676 203.738,84.676 203.738,70.775 "
           style="fill:none;stroke:#000000;stroke-width:0.05mm"
           id="polygon3150" />
        <polygon
           points="170.788,70.775 170.788,84.676 184.688,84.676 184.688,70.775 "
           style="fill:none;stroke:#000000;stroke-width:0.05mm"
           id="polygon3152" />
        <polygon
           points="151.738,70.775 151.738,84.676 165.638,84.676 165.638,70.775 "
           style="fill:none;stroke:#000000;stroke-width:0.05mm"
           id="polygon3154" />
        <polygon
           points="132.688,70.775 132.688,84.676 146.588,84.676 146.588,70.775 "
           style="fill:none;stroke:#000000;stroke-width:0.05mm"
           id="polygon3156" />
        <polygon
           points="113.638,70.775 113.638,84.676 127.538,84.676 127.538,70.775 "
           style="fill:none;stroke:#000000;stroke-width:0.05mm"
           id="polygon3158" />
        <polygon
           points="94.588,70.775 94.588,84.676 108.488,84.676 108.488,70.775 "
           style="fill:none;stroke:#000000;stroke-width:0.05mm"
           id="polygon3160" />
        <polygon
           points="75.538,70.775 75.538,84.676 89.438,84.676 89.438,70.775 "
           style="fill:none;stroke:#000000;stroke-width:0.05mm"
           id="polygon3162" />
        <polygon
           points="56.488,70.775 56.488,84.676 70.388,84.676 70.388,70.775 "
           style="fill:none;stroke:#000000;stroke-width:0.05mm"
           id="polygon3164" />
        <polygon
           points="37.438,70.775 37.438,84.676 51.338,84.676 51.338,70.775 "
           style="fill:none;stroke:#000000;stroke-width:0.05mm"
           id="polygon3166" />
        <polygon
           points="16.007,70.775 16.007,84.676 29.907,84.676 29.907,70.775 "
           style="fill:none;stroke:#000000;stroke-width:0.05mm"
           id="polygon3168" />
        <polygon
           points="323.188,51.725 323.188,65.626 337.088,65.626 337.088,51.725 "
           style="fill:none;stroke:#000000;stroke-width:0.05mm"
           id="polygon3170" />
        <polygon
           points="304.138,51.725 304.138,65.626 318.038,65.626 318.038,51.725 "
           style="fill:none;stroke:#000000;stroke-width:0.05mm"
           id="polygon3172" />
        <polygon
           points="256.513,51.725 256.513,65.626 270.413,65.626 270.413,51.725 "
           style="fill:none;stroke:#000000;stroke-width:0.05mm"
           id="polygon3174" />
        <polygon
           points="237.463,51.725 237.463,65.626 251.363,65.626 251.363,51.725 "
           style="fill:none;stroke:#000000;stroke-width:0.05mm"
           id="polygon3176" />
        <polygon
           points="218.413,51.725 218.413,65.626 232.313,65.626 232.313,51.725 "
           style="fill:none;stroke:#000000;stroke-width:0.05mm"
           id="polygon3178" />
        <polygon
           points="199.363,51.725 199.363,65.626 213.263,65.626 213.263,51.725 "
           style="fill:none;stroke:#000000;stroke-width:0.05mm"
           id="polygon3180" />
        <polygon
           points="180.313,51.725 180.313,65.626 194.213,65.626 194.213,51.725 "
           style="fill:none;stroke:#000000;stroke-width:0.05mm"
           id="polygon3182" />
        <polygon
           points="161.263,51.725 161.263,65.626 175.163,65.626 175.163,51.725 "
           style="fill:none;stroke:#000000;stroke-width:0.05mm"
           id="polygon3184" />
        <polygon
           points="142.213,51.725 142.213,65.626 156.113,65.626 156.113,51.725 "
           style="fill:none;stroke:#000000;stroke-width:0.05mm"
           id="polygon3186" />
        <polygon
           points="123.163,51.725 123.163,65.626 137.063,65.626 137.063,51.725 "
           style="fill:none;stroke:#000000;stroke-width:0.05mm"
           id="polygon3188" />
        <polygon
           points="104.113,51.725 104.113,65.626 118.013,65.626 118.013,51.725 "
           style="fill:none;stroke:#000000;stroke-width:0.05mm"
           id="polygon3190" />
        <polygon
           points="85.063,51.725 85.063,65.626 98.963,65.626 98.963,51.725 "
           style="fill:none;stroke:#000000;stroke-width:0.05mm"
           id="polygon3192" />
        <polygon
           points="66.013,51.725 66.013,65.626 79.913,65.626 79.913,51.725 "
           style="fill:none;stroke:#000000;stroke-width:0.05mm"
           id="polygon3194" />
        <polygon
           points="46.963,51.725 46.963,65.626 60.863,65.626 60.863,51.725 "
           style="fill:none;stroke:#000000;stroke-width:0.05mm"
           id="polygon3196" />
        <polygon
           points="20.769,51.725 20.769,65.626 34.669,65.626 34.669,51.725 "
           style="fill:none;stroke:#000000;stroke-width:0.05mm"
           id="polygon3198" />
        <polygon
           points="291.844,56.101 291.844,42.2 287.144,42.2 287.144,40.575 290.374,40.575 290.374,33.926 287.144,33.926 287.144,33.1 284.444,33.1 284.444,33.926 278.174,33.926 278.174,35.651 276.974,35.651 276.974,38.85 278.174,38.85 278.174,40.575 282.644,40.575 282.644,42.2 277.944,42.2 277.944,56.101 282.644,56.101 282.644,57.726 278.174,57.726 278.174,59.451 276.974,59.451 276.974,62.651 278.174,62.651 278.174,64.376 284.444,64.376 284.444,65.201 287.144,65.201 287.144,64.376 290.374,64.376 290.374,57.726 287.144,57.726 287.144,56.101 "
           style="fill:none;stroke:#000000;stroke-width:0.05mm"
           id="polygon3200" />
        <polygon
           points="323.188,32.675 323.188,46.576 337.088,46.576 337.088,32.675 "
           style="fill:none;stroke:#000000;stroke-width:0.05mm"
           id="polygon3202" />
        <polygon
           points="304.138,32.675 304.138,46.576 318.038,46.576 318.038,32.675 "
           style="fill:none;stroke:#000000;stroke-width:0.05mm"
           id="polygon3204" />
        <polygon
           points="251.751,32.675 251.751,46.576 265.651,46.576 265.651,32.675 "
           style="fill:none;stroke:#000000;stroke-width:0.05mm"
           id="polygon3206" />
        <polygon
           points="232.701,32.675 232.701,46.576 246.601,46.576 246.601,32.675 "
           style="fill:none;stroke:#000000;stroke-width:0.05mm"
           id="polygon3208" />
        <polygon
           points="213.651,32.675 213.651,46.576 227.551,46.576 227.551,32.675 "
           style="fill:none;stroke:#000000;stroke-width:0.05mm"
           id="polygon3210" />
        <polygon
           points="194.601,32.675 194.601,46.576 208.501,46.576 208.501,32.675 "
           style="fill:none;stroke:#000000;stroke-width:0.05mm"
           id="polygon3212" />
        <polygon
           points="175.551,32.675 175.551,46.576 189.451,46.576 189.451,32.675 "
           style="fill:none;stroke:#000000;stroke-width:0.05mm"
           id="polygon3214" />
        <polygon
           points="156.501,32.675 156.501,46.576 170.401,46.576 170.401,32.675 "
           style="fill:none;stroke:#000000;stroke-width:0.05mm"
           id="polygon3216" />
        <polygon
           points="137.451,32.675 137.451,46.576 151.351,46.576 151.351,32.675 "
           style="fill:none;stroke:#000000;stroke-width:0.05mm"
           id="polygon3218" />
        <polygon
           points="118.4,32.675 118.4,46.576 132.3,46.576 132.3,32.675 "
           style="fill:none;stroke:#000000;stroke-width:0.05mm"
           id="polygon3220" />
        <polygon
           points="99.351,32.675 99.351,46.576 113.251,46.576 113.251,32.675 "
           style="fill:none;stroke:#000000;stroke-width:0.05mm"
           id="polygon3222" />
        <polygon
           points="80.301,32.675 80.301,46.576 94.201,46.576 94.201,32.675 "
           style="fill:none;stroke:#000000;stroke-width:0.05mm"
           id="polygon3224" />
        <polygon
           points="61.251,32.675 61.251,46.576 75.151,46.576 75.151,32.675 "
           style="fill:none;stroke:#000000;stroke-width:0.05mm"
           id="polygon3226" />
        <polygon
           points="42.201,32.675 42.201,46.576 56.101,46.576 56.101,32.675 "
           style="fill:none;stroke:#000000;stroke-width:0.05mm"
           id="polygon3228" />
        <polygon
           points="18.388,32.675 18.388,46.576 32.288,46.576 32.288,32.675 "
           style="fill:none;stroke:#000000;stroke-width:0.05mm"
           id="polygon3230" />
        <polygon
           points="293.801,21.026 293.801,18.326 292.976,18.326 292.976,15.096 286.326,15.096 286.326,18.326 284.701,18.326 284.701,13.626 270.801,13.626 270.801,18.326 269.176,18.326 269.176,15.096 262.526,15.096 262.526,18.326 261.701,18.326 261.701,21.026 262.526,21.026 262.526,27.296 264.251,27.296 264.251,28.496 267.451,28.496 267.451,27.296 269.176,27.296 269.176,22.826 270.801,22.826 270.801,27.526 284.701,27.526 284.701,22.826 286.326,22.826 286.326,27.296 288.051,27.296 288.051,28.496 291.251,28.496 291.251,27.296 292.976,27.296 292.976,21.026 "
           style="fill:none;stroke:#000000;stroke-width:0.05mm"
           id="polygon3232" />
        <polygon
           points="323.188,13.626 323.188,27.526 337.088,27.526 337.088,13.626 "
           style="fill:none;stroke:#000000;stroke-width:0.05mm"
           id="polygon3234" />
        <polygon
           points="304.138,13.626 304.138,27.526 318.038,27.526 318.038,13.626 "
           style="fill:none;stroke:#000000;stroke-width:0.05mm"
           id="polygon3236" />
        <polygon
           points="242.226,13.626 242.226,27.526 256.126,27.526 256.126,13.626 "
           style="fill:none;stroke:#000000;stroke-width:0.05mm"
           id="polygon3238" />
        <polygon
           points="223.176,13.626 223.176,27.526 237.076,27.526 237.076,13.626 "
           style="fill:none;stroke:#000000;stroke-width:0.05mm"
           id="polygon3240" />
        <polygon
           points="204.126,13.626 204.126,27.526 218.026,27.526 218.026,13.626 "
           style="fill:none;stroke:#000000;stroke-width:0.05mm"
           id="polygon3242" />
        <polygon
           points="185.076,13.626 185.076,27.526 198.976,27.526 198.976,13.626 "
           style="fill:none;stroke:#000000;stroke-width:0.05mm"
           id="polygon3244" />
        <polygon
           points="166.026,13.626 166.026,27.526 179.926,27.526 179.926,13.626 "
           style="fill:none;stroke:#000000;stroke-width:0.05mm"
           id="polygon3246" />
        <polygon
           points="146.976,13.626 146.976,27.526 160.876,27.526 160.876,13.626 "
           style="fill:none;stroke:#000000;stroke-width:0.05mm"
           id="polygon3248" />
        <polygon
           points="127.926,13.626 127.926,27.526 141.826,27.526 141.826,13.626 "
           style="fill:none;stroke:#000000;stroke-width:0.05mm"
           id="polygon3250" />
        <polygon
           points="108.875,13.626 108.875,27.526 122.775,27.526 122.775,13.626 "
           style="fill:none;stroke:#000000;stroke-width:0.05mm"
           id="polygon3252" />
        <polygon
           points="89.825,13.626 89.825,27.526 103.726,27.526 103.726,13.626 "
           style="fill:none;stroke:#000000;stroke-width:0.05mm"
           id="polygon3254" />
        <polygon
           points="70.775,13.626 70.775,27.526 84.676,27.526 84.676,13.626 "
           style="fill:none;stroke:#000000;stroke-width:0.05mm"
           id="polygon3256" />
        <polygon
           points="51.725,13.626 51.725,27.526 65.626,27.526 65.626,13.626 "
           style="fill:none;stroke:#000000;stroke-width:0.05mm"
           id="polygon3258" />
        <polygon
           points="32.675,13.626 32.675,27.526 46.576,27.526 46.576,13.626 "
           style="fill:none;stroke:#000000;stroke-width:0.05mm"
           id="polygon3260" />
        <polygon
           points="13.626,13.626 13.626,27.526 27.526,27.526 27.526,13.626 "
           style="fill:none;stroke:#000000;stroke-width:0.05mm"
           id="polygon3262" />
        <polygon
           points="342.185,9.525 342.664,9.601 343.143,9.525 343.575,9.304 343.918,8.962 344.138,8.529 344.214,8.051 344.138,7.572 343.918,7.139 343.575,6.797 343.143,6.576 342.664,6.501 342.185,6.576 341.753,6.797 341.41,7.139 341.19,7.572 341.114,8.051 341.19,8.529 341.41,8.962 341.753,9.304 "
           style="fill:none;stroke:#000000;stroke-width:0.05mm"
           id="polygon3264" />
        <polygon
           points="230.647,9.525 231.126,9.601 231.605,9.525 232.037,9.304 232.38,8.962 232.6,8.529 232.676,8.051 232.6,7.572 232.38,7.139 232.037,6.797 231.605,6.576 231.126,6.501 230.647,6.576 230.215,6.797 229.872,7.139 229.652,7.572 229.576,8.051 229.652,8.529 229.872,8.962 230.215,9.304 "
           style="fill:none;stroke:#000000;stroke-width:0.05mm"
           id="polygon3266" />
        <polygon
           points="119.109,9.525 119.588,9.601 120.067,9.525 120.499,9.304 120.842,8.962 121.062,8.529 121.138,8.051 121.062,7.572 120.842,7.139 120.499,6.797 120.067,6.576 119.588,6.501 119.109,6.576 118.677,6.797 118.334,7.139 118.114,7.572 118.038,8.051 118.114,8.529 118.334,8.962 118.677,9.304 "
           style="fill:none;stroke:#000000;stroke-width:0.05mm"
           id="polygon3268" />
        <polygon
           points="7.572,9.525 8.051,9.6 8.529,9.525 8.962,9.304 9.304,8.962 9.525,8.529 9.601,8.049 9.525,7.572 9.304,7.139 8.962,6.797 8.529,6.576 8.051,6.5 7.572,6.576 7.139,6.797 6.797,7.139 6.576,7.572 6.501,8.049 6.576,8.529 6.797,8.962 7.139,9.304 "
           style="fill:none;stroke:#000000;stroke-width:0.05mm"
           id="polygon3270" />
      </g>
      <g
         transform="translate(-50.809394,94.146331)"
         id="g3424">
        <polygon
           points="344.835,111.473 344.662,111.633 344.477,111.779 344.281,111.909 344.076,112.025 343.862,112.123 343.641,112.205 343.414,112.269 343.183,112.315 342.949,112.342 342.714,112.352 8.001,112.351 7.765,112.342 7.531,112.315 7.3,112.269 7.073,112.205 6.852,112.123 6.639,112.025 6.433,111.909 6.237,111.779 6.052,111.633 5.879,111.473 5.719,111.3 5.573,111.115 5.443,110.919 5.327,110.713 5.229,110.5 5.147,110.279 5.083,110.052 5.037,109.821 5.01,109.587 5,109.351 5.001,8.001 5.01,7.765 5.037,7.531 5.083,7.3 5.147,7.073 5.229,6.852 5.327,6.639 5.443,6.433 5.573,6.237 5.719,6.052 5.879,5.879 6.052,5.719 6.237,5.573 6.433,5.443 6.639,5.327 6.852,5.229 7.073,5.147 7.3,5.083 7.531,5.037 7.765,5.01 8.001,5 342.714,5.001 342.949,5.01 343.183,5.037 343.414,5.083 343.641,5.147 343.862,5.229 344.076,5.327 344.281,5.443 344.477,5.573 344.662,5.719 344.835,5.879 344.995,6.052 345.141,6.237 345.272,6.433 345.387,6.639 345.486,6.852 345.567,7.073 345.631,7.3 345.677,7.531 345.705,7.765 345.714,8.001 345.714,109.351 345.705,109.587 345.677,109.821 345.631,110.052 345.567,110.279 345.486,110.5 345.387,110.713 345.272,110.919 345.141,111.115 344.995,111.3 "
           style="fill:none;stroke:#000000;stroke-width:0.05mm"
           id="polygon3389" />
        <polygon
           points="8.962,110.555 9.304,110.213 9.525,109.78 9.601,109.302 9.525,108.823 9.304,108.39 8.962,108.048 8.529,107.827 8.051,107.751 7.572,107.827 7.139,108.048 6.797,108.39 6.576,108.823 6.501,109.302 6.576,109.78 6.797,110.213 7.139,110.555 7.572,110.776 8.051,110.852 8.529,110.776 "
           style="fill:none;stroke:#000000;stroke-width:0.05mm"
           id="polygon3391" />
        <polygon
           points="120.499,110.555 120.842,110.213 121.062,109.78 121.138,109.302 121.062,108.823 120.842,108.39 120.499,108.048 120.067,107.827 119.588,107.751 119.109,107.827 118.677,108.048 118.334,108.39 118.114,108.823 118.038,109.302 118.114,109.78 118.334,110.213 118.677,110.555 119.109,110.776 119.588,110.852 120.067,110.776 "
           style="fill:none;stroke:#000000;stroke-width:0.05mm"
           id="polygon3393" />
        <polygon
           points="232.037,110.555 232.38,110.213 232.6,109.78 232.676,109.302 232.6,108.823 232.38,108.39 232.037,108.048 231.605,107.827 231.126,107.751 230.647,107.827 230.215,108.048 229.872,108.39 229.652,108.823 229.576,109.302 229.652,109.78 229.872,110.213 230.215,110.555 230.647,110.776 231.126,110.852 231.605,110.776 "
           style="fill:none;stroke:#000000;stroke-width:0.05mm"
           id="polygon3395" />
        <polygon
           points="343.575,110.555 343.918,110.213 344.138,109.78 344.214,109.302 344.138,108.823 343.918,108.39 343.575,108.048 343.143,107.827 342.664,107.751 342.185,107.827 341.753,108.048 341.41,108.39 341.19,108.823 341.114,109.302 341.19,109.78 341.41,110.213 341.753,110.555 342.185,110.776 342.664,110.852 343.143,110.776 "
           style="fill:none;stroke:#000000;stroke-width:0.05mm"
           id="polygon3397" />
        <polygon
           points="343.575,9.304 343.918,8.962 344.138,8.529 344.214,8.051 344.138,7.572 343.918,7.139 343.575,6.797 343.143,6.576 342.664,6.501 342.185,6.576 341.753,6.797 341.41,7.139 341.19,7.572 341.114,8.051 341.19,8.529 341.41,8.962 341.753,9.304 342.185,9.525 342.664,9.601 343.143,9.525 "
           style="fill:none;stroke:#000000;stroke-width:0.05mm"
           id="polygon3399" />
        <polygon
           points="232.037,9.304 232.38,8.962 232.6,8.529 232.676,8.051 232.6,7.572 232.38,7.139 232.037,6.797 231.605,6.576 231.126,6.501 230.647,6.576 230.215,6.797 229.872,7.139 229.652,7.572 229.576,8.051 229.652,8.529 229.872,8.962 230.215,9.304 230.647,9.525 231.126,9.601 231.605,9.525 "
           style="fill:none;stroke:#000000;stroke-width:0.05mm"
           id="polygon3401" />
        <polygon
           points="120.499,9.304 120.842,8.962 121.062,8.529 121.138,8.051 121.062,7.572 120.842,7.139 120.499,6.797 120.067,6.576 119.588,6.501 119.109,6.576 118.677,6.797 118.334,7.139 118.114,7.572 118.038,8.051 118.114,8.529 118.334,8.962 118.677,9.304 119.109,9.525 119.588,9.601 120.067,9.525 "
           style="fill:none;stroke:#000000;stroke-width:0.05mm"
           id="polygon3403" />
        <polygon
           points="8.962,9.304 9.304,8.962 9.525,8.529 9.601,8.049 9.525,7.572 9.304,7.139 8.962,6.797 8.529,6.576 8.051,6.5 7.572,6.576 7.139,6.797 6.797,7.139 6.576,7.572 6.501,8.049 6.576,8.529 6.797,8.962 7.139,9.304 7.572,9.525 8.051,9.6 8.529,9.525 "
           style="fill:none;stroke:#000000;stroke-width:0.05mm"
           id="polygon3405" />
      </g>
    </g>
  </g>
</svg>
